<?xml version="1.0" encoding="UTF-8" standalone="no"?>
<svg
   version="1.1"
   width="0.061910946in"
   height="0.064032242in"
   viewBox="0 0 4.457597 4.610327"
   id="svg36"
   xmlns="http://www.w3.org/2000/svg"
   xmlns:svg="http://www.w3.org/2000/svg">
  <defs
     id="defs36" />
  <path
     d="m 3.1416293,4.0159846 c 0.2462,-0.3829 0.4068,-0.9234 0.4324,-1.5369 h 0.5375 c -0.0567,0.6625 -0.4341,1.2306 -0.9699,1.5369 z m -2.79549998,-1.5369 h 0.5375 c 0.026,0.6135 0.18619998,1.154 0.43269998,1.5369 -0.53619998,-0.3063 -0.91309998,-0.8744 -0.97019998,-1.5369 z M 1.3163293,0.59308466 c -0.2465,0.3826 -0.40669998,0.92349994 -0.43269998,1.53619994 h -0.5375 c 0.0571,-0.6614 0.434,-1.22979994 0.97019998,-1.53619994 z m 1.0816,1.53619994 V 0.37868466 c 0.4419,0.1503 0.7957,0.87759994 0.8379,1.75059994 z m 0,2.1019 v -1.7521 h 0.8379 c -0.0422,0.8737 -0.396,1.6007 -0.8379,1.7521 z m -0.3381,-1.7521 v 1.7521 c -0.442,-0.1514 -0.7954,-0.8784 -0.8377,-1.7521 z m 0,-2.10039994 V 2.1292846 h -0.8377 c 0.0423,-0.873 0.3957,-1.60029994 0.8377,-1.75059994 z m 2.0517,1.75059994 h -0.5375 c -0.0256,-0.6127 -0.1862,-1.15359994 -0.4324,-1.53619994 0.5358,0.3064 0.9132,0.87479994 0.9699,1.53619994 z m -1.8825,-2.129299938724 c -1.2288,0 -2.228999978448,1.033299938724 -2.228999978448,2.304799938724 0,1.271 1.000199978448,2.3055 2.228999978448,2.3055 1.2291,0 2.2286,-1.0345 2.2286,-2.3055 0,-1.2715 -0.9995,-2.304799938724 -2.2286,-2.304799938724 z"
     style="fill:#ffffff;fill-rule:evenodd"
     id="path18" />
</svg>
