<?xml version="1.0" encoding="UTF-8" standalone="no"?>
<svg
   version="1.1"
   width="0.11209679in"
   height="0.11210816in"
   viewBox="0 0 8.0709847 8.071797"
   id="svg12"
   xmlns="http://www.w3.org/2000/svg"
   xmlns:svg="http://www.w3.org/2000/svg">
  <defs
     id="defs12" />
  <path
     d="M -469.31382,790.73929 V -51.149908 h 595.2753 V 790.73929 Z"
     style="fill:#ffffff;fill-rule:evenodd"
     id="path1" />
  <path
     d="m 5.6881837,7.0312914 c 0.4457,-0.6704 0.7365,-1.6167 0.7829,-2.6909 h 0.9731 c -0.1026,1.16 -0.7859,2.1546 -1.756,2.6909 z m -5.06150002,-2.6909 H 1.5997837 c 0.0471,1.0742 0.3372,2.0205 0.7834,2.6909 -0.9708,-0.5363 -1.65310002,-1.5309 -1.75650002,-2.6909 z m 1.75650002,-3.3021 c -0.4462,0.6699 -0.7363,1.6169 -0.7834,2.6897 H 0.62668368 c 0.1034,-1.158 0.78570002,-2.1532 1.75650002,-2.6897 z m 1.9583,2.6897 V 0.66289138 c 0.8003,0.2633 1.4409,1.53670002 1.5173,3.06510002 z m 0,3.6801 v -3.0677 h 1.5173 c -0.0764,1.5297 -0.717,2.8025 -1.5173,3.0677 z m -0.6121,-3.0677 v 3.0677 c -0.8003,-0.2652 -1.4402,-1.538 -1.5167,-3.0677 z m 0,-3.67750002 V 3.7279914 h -1.5167 c 0.0765,-1.5284 0.7164,-2.80180002 1.5167,-3.06510002 z m 3.7148,3.06510002 h -0.9731 c -0.0464,-1.0728 -0.3372,-2.0198 -0.7829,-2.6897 0.9701,0.5365 1.6534,1.5317 1.756,2.6897 z M 4.0357837,-8.6202433e-6 c -2.2248,0 -4.035800019507,1.8091000202433 -4.035800019507,4.0352000202433 0,2.2253 1.811000019507,4.0366 4.035800019507,4.0366 2.2253,0 4.0352,-1.8113 4.0352,-4.0366 0,-2.2261 -1.8099,-4.0352000202433 -4.0352,-4.0352000202433 z"
     style="fill:#0154b2;fill-rule:evenodd"
     id="path10" />
</svg>
