<?xml version="1.0" encoding="UTF-8" standalone="no"?>
<svg
   version="1.1"
   width="0.82957363in"
   height="0.29297239in"
   viewBox="0 0 59.72942 21.094037"
   id="svg12"
   xmlns="http://www.w3.org/2000/svg"
   xmlns:svg="http://www.w3.org/2000/svg">
  <defs
     id="defs12" />
  <path
     d="M 2.8322806e-6,16.345198 H 3.1055029 v -4.3898 H 2.8322806e-6 Z M 3.1055029,6.7017981 V -1.9066669e-6 H 2.8322806e-6 V 9.6668981 H 9.6904029 V 16.345198 H 12.795803 V 6.7017981 Z M 9.6904029,-1.9066669e-6 V 4.3897981 H 12.795803 V -1.9066669e-6 Z M 25.007803,11.838498 c 0.0699,-0.35 0.0934,-0.7235 0.0934,-1.1204 0,-3.2457999 -1.9843,-5.7909999 -5.2072,-5.7909999 -3.2452,0 -5.5801,2.5452 -5.5801,5.7909999 0,3.2451 2.4518,5.8138 5.6969,5.8138 2.0549,0 3.7127,-1.0271 4.647,-2.5916 l -2.5686,-1.2608 c -0.4434,0.6301 -1.1675,1.0036 -2.0784,1.0036 -1.2843,0 -2.1481,-0.747 -2.4981,-1.8446 z m -5.1138,-4.0860999 c 1.3078,0 2.0084,0.794 2.265,1.9145 h -4.6698 c 0.2801,-1.1205 1.0975,-1.9145 2.4048,-1.9145 z m 11.5819,-2.8253 c -2.8018,0 -4.4597,1.8446 -4.6699,3.3157 l 2.5916,0.5602 c 0.1867,-0.8638 0.9108,-1.3072 1.868,-1.3307 1.0976,-0.047 1.8211,0.6536 1.6579,1.3307 -0.1398,0.6307 -0.9338,0.6307 -2.8253,1.0506 -2.3819,0.5138999 -4.0627,1.3776999 -4.0627,3.8294999 0.0934,1.7048 1.3073,2.8488 3.5024,2.8488 1.9145,0 3.0356,-0.8175 3.4555,-1.2373 v 1.0506 h 3.0825 V 9.3168981 c 0,-3.2693 -2.1482,-4.3898 -4.6,-4.3898 z m 1.5175,6.8180999 c -0.0934,1.2373 -0.9573,2.1951 -2.1711,2.3819 -0.7006,0.1168 -1.4012,-0.0235 -1.588,-0.5374 -0.2102,-0.5602 0.1169,-1.3072 1.2609,-1.6108 1.471,-0.3735 2.4982,-0.5837 2.4982,-0.5837 z m 14.8975,-6.6547999 h -3.1753 l -2.3819,7.0986999 -2.3819,-7.0986999 h -3.1753 l 4.0861,11.2547999 h 2.9187 z m 11.8385,0 h -3.1753 l -2.3819,6.9818999 -2.3819,-6.9818999 h -3.1988 l 4.0398,11.0679999 c -0.8645,2.2181 -1.7513,2.1482 -2.732,1.9849 l -0.4903,2.8717 c 3.8289,0.5374 5.0668,-1.7277 6.3042,-4.9036 0.7006,-1.7512 4.0162,-11.0209999 4.0162,-11.0209999 z"
     style="fill:#002878;fill-rule:evenodd"
     id="path4" />
</svg>
