<?xml version="1.0" encoding="UTF-8" standalone="no"?>
<svg
   version="1.1"
   width="1.5434389in"
   height="0.65379989in"
   viewBox="0 0 111.12782 47.073649"
   id="svg12"
   xmlns="http://www.w3.org/2000/svg"
   xmlns:svg="http://www.w3.org/2000/svg">
  <defs
     id="defs12" />
  <path
     d="M 6.7092974e-7,16.345198 H 3.1055007 v -4.3898 H 6.7092974e-7 Z M 3.1055007,6.7017985 V -1.4541267e-6 H 6.7092974e-7 V 9.6668985 H 9.6904007 V 16.345198 H 12.795801 V 6.7017985 Z M 9.6904007,-1.4541267e-6 V 4.3897985 H 12.795801 V -1.4541267e-6 Z M 25.007801,11.838498 c 0.0699,-0.35 0.0934,-0.7235 0.0934,-1.1204 0,-3.2457995 -1.9843,-5.7909995 -5.2072,-5.7909995 -3.2452,0 -5.5801,2.5452 -5.5801,5.7909995 0,3.2451 2.4518,5.8138 5.6969,5.8138 2.0549,0 3.7127,-1.0271 4.647,-2.5916 l -2.5686,-1.2608 c -0.4434,0.6301 -1.1675,1.0036 -2.0784,1.0036 -1.2843,0 -2.1481,-0.747 -2.4981,-1.8446 z m -5.1138,-4.0860995 c 1.3078,0 2.0084,0.794 2.265,1.9145 h -4.6698 c 0.2801,-1.1205 1.0975,-1.9145 2.4048,-1.9145 z m 11.5819,-2.8253 c -2.8018,0 -4.4597,1.8446 -4.6699,3.3157 l 2.5916,0.5602 c 0.1867,-0.8638 0.9108,-1.3072 1.868,-1.3307 1.0976,-0.047 1.8211,0.6536 1.6579,1.3307 -0.1398,0.6307 -0.9338,0.6307 -2.8253,1.0506 -2.3819,0.5138995 -4.0627,1.3776995 -4.0627,3.8294995 0.0934,1.7048 1.3073,2.8488 3.5024,2.8488 1.9145,0 3.0356,-0.8175 3.4555,-1.2373 v 1.0506 h 3.0825 V 9.3168985 c 0,-3.2693 -2.1482,-4.3898 -4.6,-4.3898 z m 1.5175,6.8180995 c -0.0934,1.2373 -0.9573,2.1951 -2.1711,2.3819 -0.7006,0.1168 -1.4012,-0.0235 -1.588,-0.5374 -0.2102,-0.5602 0.1169,-1.3072 1.2609,-1.6108 1.471,-0.3735 2.4982,-0.5837 2.4982,-0.5837 z m 14.8975,-6.6547995 h -3.1753 l -2.3819,7.0986995 -2.3819,-7.0986995 h -3.1753 l 4.0861,11.2547995 h 2.9187 z m 11.8385,0 h -3.1753 l -2.3819,6.9818995 -2.3819,-6.9818995 h -3.1988 l 4.0398,11.0679995 c -0.8645,2.2181 -1.7513,2.1482 -2.732,1.9849 l -0.4903,2.8717 c 3.8289,0.5374 5.0668,-1.7277 6.3042,-4.9036 0.7006,-1.7512 4.0162,-11.0209995 4.0162,-11.0209995 z"
     style="fill:#002878;fill-rule:evenodd"
     id="path4" />
  <path
     d="m 6.7092974e-7,39.717998 v 2.9657 H 10.857901 v -2.9657 z M 9.9940007,33.040298 H 6.7092974e-7 v 2.9651 H 9.9940007 Z m 0.7235003,-6.7018 H 6.7092974e-7 v 2.9892 H 10.717501 Z m 7.612,4.9271 c -1.0506,0 -1.9379,0.4434 -2.615,1.144 v -0.9807 h -3.1054 v 11.2548 h 3.1054 v -6.1175 c 0,-1.6578 0.747,-2.4054 1.868,-2.4054 1.1205,0 1.7976,0.6542 1.7976,2.2885 v 6.2344 h 3.106 v -6.1175 c 0,-3.456 -1.5879,-5.3006 -4.1566,-5.3006 z m 15.9952,11.7217 c -0.0934,-2.0084 -1.5175,-2.9892 -5.5338,-2.9892 -0.6771,0 -1.2373,-0.0699 -1.3313,-0.3265 -0.0464,-0.1867 0.047,-0.4439 0.397,-0.6307 0.1404,0 0.3036,0.0235 0.4675,0.0235 2.4048,0 4.4596,-1.4946 4.4596,-3.8994 0,-0.6771 -0.1867,-1.2608 -0.4669,-1.7747 0.4904,-0.35 1.1675,-0.4903 1.938,-0.4434 v -2.4988 c -1.2609,0 -2.4048,0.6543 -3.1524,1.6115 -0.7705,-0.5139 -1.7277,-0.794 -2.7783,-0.794 -2.4054,0 -4.4603,1.4946 -4.4603,3.8994 0,1.4476 0.7705,2.5687 1.8916,3.2223 -1.3777,1.1909 -1.2144,2.7319 -0.3735,3.3391 0.6771,0.5139 1.7747,0.747 3.1054,0.8404 2.1012,0.1169 2.9187,0 2.9187,0.7241 0,0.7705 -0.8873,1.3542 -3.0819,1.2373 -1.7048,-0.0933 -2.9657,-0.5602 -3.6428,-1.2373 l -1.4946,1.7747 c 0.6073,0.7705 2.7789,1.9843 5.5573,2.0078 3.5259,0.0235 5.6975,-1.541 5.5807,-4.0861 z m -6.0006,-9.4102 c 1.0506,0 1.7976,0.6771 1.7976,1.5879 0,0.9108 -0.747,1.5879 -1.7976,1.5879 -1.0512,0 -1.7982,-0.6771 -1.7982,-1.5879 0,-0.9108 0.747,-1.5879 1.7982,-1.5879 z m 8.9427,-3.7127 c 0.9573,0 1.7277,-0.7705 1.7277,-1.7277 0,-0.9807 -0.7704,-1.7512 -1.7277,-1.7512 -0.9807,0 -1.7512,0.7705 -1.7512,1.7512 0,0.9572 0.7705,1.7277 1.7512,1.7277 z m -1.5644,12.8193 h 3.1054 v -11.2548 h -3.1054 z m 10.9975,-11.4181 c -1.0506,0 -1.9379,0.4434 -2.615,1.144 v -0.9807 h -3.1054 v 11.2548 h 3.1054 v -6.1175 c 0,-1.6578 0.747,-2.4054 1.8681,-2.4054 1.1204,0 1.7976,0.6542 1.7976,2.2885 v 6.2344 h 3.106 v -6.1175 c 0,-3.456 -1.588,-5.3006 -4.1567,-5.3006 z m 16.2518,6.9114 c 0.0699,-0.35 0.0934,-0.7235 0.0934,-1.1204 0,-3.2458 -1.9844,-5.791 -5.2072,-5.791 -3.2452,0 -5.5801,2.5452 -5.5801,5.791 0,3.2451 2.4518,5.8138 5.6969,5.8138 2.0549,0 3.7127,-1.0271 4.647,-2.5916 l -2.5687,-1.2608 c -0.4433,0.6301 -1.1674,1.0036 -2.0783,1.0036 -1.2843,0 -2.1481,-0.747 -2.4982,-1.8446 z m -5.1138,-4.0861 c 1.3078,0 2.0084,0.794 2.265,1.9145 h -4.6698 c 0.2801,-1.1205 1.0975,-1.9145 2.4048,-1.9145 z m 16.9523,4.0861 c 0.0699,-0.35 0.0934,-0.7235 0.0934,-1.1204 0,-3.2458 -1.9843,-5.791 -5.2072,-5.791 -3.2452,0 -5.5801,2.5452 -5.5801,5.791 0,3.2451 2.4518,5.8138 5.697,5.8138 2.0548,0 3.7126,-1.0271 4.6469,-2.5916 l -2.5686,-1.2608 c -0.4434,0.6301 -1.1675,1.0036 -2.0783,1.0036 -1.2844,0 -2.1482,-0.747 -2.4982,-1.8446 z m -5.1138,-4.0861 c 1.3078,0 2.0084,0.794 2.2651,1.9145 h -4.6699 c 0.2801,-1.1205 1.0976,-1.9145 2.4048,-1.9145 z m 12.3289,-2.8253 c -1.0506,0 -1.938,0.4434 -2.6151,1.144 v -0.9807 h -3.1054 v 11.2548 h 3.1054 v -6.1175 c 0,-1.6578 0.7705,-2.4054 1.8681,-2.4054 0.4205,0 0.7705,0.0934 1.0506,0.2801 l 0.5837,-3.1054 c -0.2801,-0.0464 -0.5837,-0.0699 -0.8873,-0.0699 z m 3.6897,-1.4012 c 0.9573,0 1.7277,-0.7705 1.7277,-1.7277 0,-0.9807 -0.7704,-1.7512 -1.7277,-1.7512 -0.9807,0 -1.7512,0.7705 -1.7512,1.7512 0,0.9572 0.7705,1.7277 1.7512,1.7277 z m -1.5644,12.8193 h 3.1054 v -11.2548 h -3.1054 z m 10.9976,-11.4181 c -1.0507,0 -1.938,0.4434 -2.6151,1.144 v -0.9807 h -3.1054 v 11.2548 h 3.1054 v -6.1175 c 0,-1.6578 0.747,-2.4054 1.8681,-2.4054 1.1204,0 1.7976,0.6542 1.7976,2.2885 v 6.2344 h 3.106 v -6.1175 c 0,-3.456 -1.588,-5.3006 -4.1566,-5.3006 z m 15.995099,11.7217 c -0.0934,-2.0084 -1.5175,-2.9892 -5.5337,-2.9892 -0.6771,0 -1.2374,-0.0699 -1.3314,-0.3265 -0.0463,-0.1867 0.047,-0.4439 0.397,-0.6307 0.1404,0 0.3036,0.0235 0.4675,0.0235 2.4048,0 4.4596,-1.4946 4.4596,-3.8994 0,-0.6771 -0.1867,-1.2608 -0.4668,-1.7747 0.4903,-0.35 1.1674,-0.4903 1.9379,-0.4434 v -2.4988 c -1.2608,0 -2.4048,0.6543 -3.1524,1.6115 -0.7705,-0.5139 -1.7277,-0.794 -2.7783,-0.794 -2.4054,0 -4.4602,1.4946 -4.4602,3.8994 0,1.4476 0.7705,2.5687 1.8915,3.2223 -1.3777,1.1909 -1.2144,2.7319 -0.3735,3.3391 0.6771,0.5139 1.7747,0.747 3.1054,0.8404 2.1013,0.1169 2.9187,0 2.9187,0.7241 0,0.7705 -0.8873,1.3542 -3.0819,1.2373 -1.7048,-0.0933 -2.9657,-0.5602 -3.6428,-1.2373 l -1.494499,1.7747 c 0.607199,0.7705 2.778899,1.9843 5.557199,2.0078 3.5259,0.0235 5.6976,-1.541 5.5807,-4.0861 z m -6.0006,-9.4102 c 1.0506,0 1.7976,0.6771 1.7976,1.5879 0,0.9108 -0.747,1.5879 -1.7976,1.5879 -1.0512,0 -1.7982,-0.6771 -1.7982,-1.5879 0,-0.9108 0.747,-1.5879 1.7982,-1.5879 z"
     style="fill:#0154b2;fill-rule:evenodd"
     id="path5" />
</svg>
