<?xml version="1.0" encoding="UTF-8" standalone="no"?>
<svg
   version="1.1"
   width="0.061910946in"
   height="0.064025246in"
   viewBox="0 0 4.457597 4.6098232"
   id="svg36"
   xmlns="http://www.w3.org/2000/svg"
   xmlns:svg="http://www.w3.org/2000/svg">
  <defs
     id="defs36" />
  <path
     d="m 3.0741197,4.2604974 h 1.045 v -2.4219 L 2.2289197,0.39279744 0.33821972,1.8385974 v 2.4219 H 1.3833197 v -1.7535 c 0,-0.0958 0.0755,-0.1736 0.1691,-0.1736 h 1.3526 c 0.0935,0 0.1691,0.0778 0.1691,0.1736 z m 1.2141,0.3493 h -1.3832 c -0.0931,0 -0.1687,-0.0778 -0.1687,-0.1745 v -1.7522 h -1.015 v 1.7522 c 0,0.0967 -0.0755,0.1745 -0.1689,0.1745 H 0.16911972 c -0.0934,0 -0.169099995181,-0.0778 -0.169099995181,-0.1745 v -2.6852 c 0,-0.0554 0.02539999518,-0.1078 0.06819999518,-0.1409 L 2.1283197,0.03439744 c 0.0596,-0.0459 0.1415,-0.0459 0.2011,0 l 2.0597,1.57479996 c 0.0429,0.0331 0.0685,0.0855 0.0685,0.1409 v 2.6852 c 0,0.0967 -0.076,0.1745 -0.1694,0.1745 z"
     style="fill:#ffffff;fill-rule:evenodd"
     id="path16" />
</svg>
