<?xml version="1.0" encoding="UTF-8" standalone="no"?>
<svg
   version="1.1"
   width="0.066599846in"
   height="0.068552658in"
   viewBox="0 0 4.7951985 4.9357973"
   id="svg36"
   xmlns="http://www.w3.org/2000/svg"
   xmlns:svg="http://www.w3.org/2000/svg">
  <defs
     id="defs36" />
  <path
     d="m 4.4345143,4.0076652 -0.0273,-0.0401 -0.003,-0.003 -0.003,-0.004 c -0.0595,-0.0655 -0.1214,-0.129 -0.1966,-0.2041 l -0.0539,-0.0555 -0.0578,-0.0577 -0.3083,-0.3188 -0.045,-0.0386 -0.0498,0.0386 -0.0325,0.0335 -0.0622,0.0647 -0.004,0.005 c -0.1009,0.1013 -0.1852,0.189 -0.2666,0.2834 l -0.0212,0.0215 c -0.1204,0.1194 -0.2652,0.1525 -0.4331,0.0975 l -0.01,-0.003 -0.0116,-0.005 c -0.2081,-0.0885 -0.4054,-0.2132 -0.6386,-0.403 l -0.006,-0.006 c -0.3987,-0.335 -0.7096,-0.6881 -0.9487,-1.0789 -0.0346,-0.0581 -0.0629,-0.1152 -0.0852,-0.1617 -0.0179,-0.0382 -0.0354,-0.0732 -0.0511,-0.0997 l -0.004,-0.008 -0.0112,-0.0211 c -0.0324,-0.0654 -0.0477,-0.1309 -0.0477,-0.1995 0,-0.1154 0.0436,-0.219 0.1308,-0.3095 l 0.3865,-0.3997 0.032,-0.042 -0.0239,-0.0323 -0.006,-0.006 -0.62560002,-0.64719999 -0.0476,-0.035 -0.0481,0.0335 -0.013,0.0119 c -0.0335,0.0327 -0.0655,0.067 -0.0994,0.1032 l -0.0238,0.0253 c -0.0707,0.0763 -0.1482,0.158 -0.2364,0.2357 -0.0842,0.0824 -0.1195,0.1725 -0.1195,0.30109999 l 7e-4,0.0413 c 0.0193,0.3156 0.1419,0.616 0.2465,0.8428 0.2985,0.6371 0.72230002,1.1963 1.25840002,1.661 0.448,0.3842 0.8616,0.641 1.3029,0.8101 0.2542,0.0982 0.4482,0.1351 0.6288,0.1197 0.0904,-0.008 0.1593,-0.0404 0.2234,-0.1066 l 0.3831,-0.3962 z m -4.19780002,-3.50039999 0.007,-0.006 c 0.077,-0.0677 0.1474,-0.1416 0.2133,-0.214 l 0.025,-0.0259 c 0.0395,-0.0423 0.0759,-0.0816 0.118,-0.122 0.1903,-0.1883 0.42230002,-0.186 0.60540002,0.006 l 0.6219,0.6423 c 0.0889,0.0863 0.1384,0.1929 0.1384,0.30299999 0,0.1089 -0.048,0.2157 -0.1381,0.3088 l -0.3865,0.3989 -0.0249,0.0458 0.008,0.0285 0.004,0.008 c 0.0224,0.0388 0.044,0.0819 0.0652,0.1266 0.0193,0.0405 0.0413,0.0859 0.0666,0.1267 0.2186,0.3577 0.5042,0.6827 0.8739,0.9922 l 0.003,0.003 c 0.2025,0.164 0.3704,0.2711 0.5432,0.3458 l 0.001,7e-4 c 0.0387,0.0128 0.0473,0.0128 0.0745,-0.0154 l 0.002,-0.002 c 0.0872,-0.1001 0.1747,-0.1914 0.2789,-0.2969 l 0.0663,-0.0693 0.0313,-0.0311 c 0.1895,-0.1953 0.4159,-0.1953 0.6053,0 l 0.3069,0.3173 0.0562,0.0577 0.0532,0.0527 c 0.0778,0.0789 0.1426,0.1452 0.2067,0.2149 l 0.001,10e-4 c 0.086,0.0902 0.1314,0.1941 0.1314,0.3027 0,0.1066 -0.0443,0.2117 -0.1292,0.3049 l -0.004,0.005 -0.385,0.3986 c -0.1236,0.127 -0.2744,0.1998 -0.4483,0.2152 -0.2368,0.0204 -0.4792,-0.0239 -0.7848,-0.1425 -0.4807,-0.1836 -0.9279,-0.4608 -1.4079,-0.8725 -0.5771,-0.4998 -1.03160002,-1.1004 -1.35300002,-1.7877 -0.1191,-0.2568 -0.2584,-0.5998 -0.2822000008,-0.9803 l -0.001,-0.0643 c 0,-0.23369999 0.0778000008,-0.42189999 0.2367000008,-0.57639999 z"
     style="fill:#ffffff;fill-rule:evenodd"
     id="path14" />
</svg>
