<?xml version="1.0" encoding="UTF-8" standalone="no"?>
<svg
   version="1.1"
   width="0.069676399in"
   height="0.05309169in"
   viewBox="0 0 5.0167107 3.8226063"
   id="svg36"
   xmlns="http://www.w3.org/2000/svg"
   xmlns:svg="http://www.w3.org/2000/svg">
  <defs
     id="defs36" />
  <path
     d="M 0.38051519,3.4282654 V 0.62246539 L 2.3855152,2.3883654 c 0.035,0.0319 0.0789,0.0469 0.1229,0.0469 0.0435,0 0.0883,-0.015 0.1236,-0.0469 l 2.0046,-1.76590001 V 3.4282654 Z M 4.3097152,0.39336539 2.5084152,1.9808654 0.70701519,0.39336539 Z m 0.706,-0.2075 -0.002,-0.0211 -0.004,-0.0181 -0.005,-0.0185 -0.007,-0.017 -0.008,-0.0165 -0.012,-0.0169 -0.006,-0.009 -0.005,-0.005 -0.0142,-0.015 -0.0138,-0.0112 -0.0159,-0.0105 -0.0157,-0.009 -0.0175,-0.007 -0.0175,-0.005 -0.0175,-0.004 -0.0201,-0.0019999989 -0.007,-6.99999999e-4 H 0.19161519 l -0.007,6.99999999e-4 -0.0197,0.0019999989 -0.0175,0.004 -0.0179,0.005 -0.0172,0.007 -0.0159,0.008 -0.0165,0.0112 -0.013,0.0112 -0.0145,0.015 -0.006,0.005 -0.006,0.009 -0.0115,0.0169 -0.008,0.0165 -0.007,0.017 -0.006,0.0185 -0.004,0.0181 -0.002,0.0211 -0.001000006,0.0108 V 3.6247654 c 0,0.1089 0.085300006,0.1975 0.19060000604,0.1975 H 4.8274152 c 0.105,0 0.1902,-0.0886 0.1902,-0.1975 V 0.19636539 Z"
     style="fill:#ffffff;fill-rule:evenodd"
     id="path12" />
</svg>
